# Blender v2.83.0 OBJ File: 'test.blend'
# www.blender.org
mtllib test.mtl
o Plane
v -0.579779 0.000000 0.959516
v -0.851020 0.000000 0.545873
v -1.013765 0.000000 0.003390
v -0.010171 0.000000 -0.803553
v 0.166136 0.000000 1.000203
v 0.756086 0.000000 0.952735
v 1.610496 0.000000 0.688275
v 2.498812 0.000000 0.511968
v 2.932798 0.000000 -0.620465
v 2.024139 0.000000 -0.884925
v 1.712211 0.000000 -0.552654
v 1.278225 0.000000 0.030515
v 0.695056 0.000000 0.315318
v 0.613684 0.000000 -0.437377
v 0.627246 0.000000 -1.264663
v 0.267851 0.000000 -1.176509
v -0.579779 1.130734 0.959516
v -0.851020 1.130734 0.545873
v -1.013765 1.130734 0.003390
v -0.010171 1.130734 -0.803553
v 0.166136 1.130734 1.000203
v 0.756086 1.130734 0.952735
v 1.610496 1.130734 0.688275
v 2.498812 1.130734 0.511968
v 2.932798 1.130734 -0.620465
v 2.024139 1.130734 -0.884925
v 1.712211 1.130734 -0.552654
v 1.278225 1.130734 0.030515
v 0.695056 1.130734 0.315318
v 0.613684 1.130734 -0.437377
v 0.627246 1.130734 -1.264663
v 0.267851 1.130734 -1.176509
vt 0.000000 0.000000
vt 0.000000 0.000000
vt 0.000000 0.000000
vt 0.000000 0.000000
vt 0.000000 0.000000
vt 0.000000 0.000000
vt 0.000000 0.000000
vt 0.000000 0.000000
vt 0.000000 0.000000
vt 0.000000 0.000000
vt 0.000000 0.000000
vt 0.000000 0.000000
vt 0.000000 0.000000
vt 0.000000 0.000000
vt 0.000000 0.000000
vt 0.000000 0.000000
vt 0.000000 0.000000
vt 0.000000 0.000000
vt 0.000000 0.000000
vt 0.000000 0.000000
vt 0.000000 0.000000
vt 0.000000 0.000000
vt 0.000000 0.000000
vt 0.000000 0.000000
vt 0.000000 0.000000
vt 0.000000 0.000000
vt 0.000000 0.000000
vt 0.000000 0.000000
vt 0.000000 0.000000
vt 0.000000 0.000000
vt 0.000000 0.000000
vt 0.000000 0.000000
vn 0.0000 1.0000 0.0000
vn 0.0000 -1.0000 0.0000
vn 0.2382 0.0000 0.9712
vn -0.9338 0.0000 -0.3579
vn 0.0545 0.0000 -0.9985
vn 0.8017 0.0000 0.5977
vn -0.2794 0.0000 0.9602
vn 0.8362 0.0000 -0.5484
vn 0.7291 0.0000 0.6844
vn 0.9578 0.0000 -0.2873
vn 0.8022 0.0000 0.5970
vn 0.6266 0.0000 0.7793
vn 0.4388 0.0000 0.8986
vn -0.0802 0.0000 -0.9968
vn -0.9942 0.0000 0.1075
vn -0.2957 0.0000 -0.9553
vn -0.9999 0.0000 -0.0164
vn -0.1947 0.0000 -0.9809
usemtl None
s off
f 1/1/1 5/2/1 6/3/1 7/4/1 8/5/1 9/6/1 10/7/1 11/8/1 12/9/1 13/10/1 14/11/1 15/12/1 16/13/1 4/14/1 3/15/1 2/16/1
f 17/17/2 18/18/2 19/19/2 20/20/2 32/21/2 31/22/2 30/23/2 29/24/2 28/25/2 27/26/2 26/27/2 25/28/2 24/29/2 23/30/2 22/31/2 21/32/2
f 16/13/3 15/12/3 31/22/3 32/21/3
f 9/6/4 8/5/4 24/29/4 25/28/4
f 5/2/5 1/1/5 17/17/5 21/32/5
f 4/14/6 16/13/6 32/21/6 20/20/6
f 10/7/7 9/6/7 25/28/7 26/27/7
f 1/1/8 2/16/8 18/18/8 17/17/8
f 11/8/9 10/7/9 26/27/9 27/26/9
f 2/16/10 3/15/10 19/19/10 18/18/10
f 12/9/11 11/8/11 27/26/11 28/25/11
f 3/15/12 4/14/12 20/20/12 19/19/12
f 13/10/13 12/9/13 28/25/13 29/24/13
f 6/3/14 5/2/14 21/32/14 22/31/14
f 14/11/15 13/10/15 29/24/15 30/23/15
f 7/4/16 6/3/16 22/31/16 23/30/16
f 15/12/17 14/11/17 30/23/17 31/22/17
f 8/5/18 7/4/18 23/30/18 24/29/18
