# Blender v2.83.0 OBJ File: 'test.blend'
# www.blender.org
mtllib test.mtl
o Plane
v 0.362988 0.000000 -0.478266
v 1.000000 0.000000 1.000000
v -1.000000 0.000000 -1.000000
v 1.000000 0.000000 -1.000000
v 0.000445 0.000000 -1.707938
v -0.268034 0.000000 1.001683
v -0.444341 0.000000 0.181177
v 0.362988 0.890168 -0.478266
v 1.000000 0.890168 1.000000
v -1.000000 0.890168 -1.000000
v 1.000000 0.890168 -1.000000
v 0.000445 0.890168 -1.707938
v -0.268034 0.890168 1.001683
v -0.444341 0.890168 0.181177
vt 0.000000 0.000000
vt 0.000000 1.000000
vt 1.000000 1.000000
vt 1.000000 0.000000
vt 0.000000 0.000000
vt 0.000000 0.000000
vt 0.000000 0.000000
vt 0.000000 0.000000
vt 1.000000 0.000000
vt 1.000000 1.000000
vt 0.000000 1.000000
vt 0.000000 0.000000
vt 0.000000 0.000000
vt 0.000000 0.000000
vn 0.0000 -1.0000 0.0000
vn 0.0000 1.0000 0.0000
vn 0.0013 0.0000 1.0000
vn -0.9777 0.0000 0.2101
vn -0.5776 0.0000 -0.8163
vn 1.0000 0.0000 0.0000
vn -0.3575 0.0000 0.9339
vn -0.6326 0.0000 -0.7745
vn 0.5780 0.0000 -0.8161
usemtl None
s off
f 1/1/1 3/2/1 4/3/1 2/4/1
f 3/2/1 5/5/1 4/3/1
f 7/6/1 1/1/1 2/4/1 6/7/1
f 8/8/2 9/9/2 11/10/2 10/11/2
f 10/11/2 11/10/2 12/12/2
f 14/13/2 13/14/2 9/9/2 8/8/2
f 6/7/3 2/4/3 9/9/3 13/14/3
f 7/6/4 6/7/4 13/14/4 14/13/4
f 5/5/5 3/2/5 10/11/5 12/12/5
f 2/4/6 4/3/6 11/10/6 9/9/6
f 3/2/7 1/1/7 8/8/7 10/11/7
f 1/1/8 7/6/8 14/13/8 8/8/8
f 4/3/9 5/5/9 12/12/9 11/10/9
